<?xml version="1.0" encoding="UTF-8"?><svg id="Layer_2" xmlns="http://www.w3.org/2000/svg" viewBox="0 0 1601.62 1737.2"><defs><style>.cls-1{fill:#edb751;stroke-width:0px;}</style></defs><g id="Logos"><g id="Orange-no_circle"><path class="cls-1" d="m1565.39,1007.73c-37.33-19.43-93.02,9.37-140.42,67.05l17.39-48.53c1.44-4.02-2.04-8.08-6.24-7.27l-66.63,12.91c-4.82.93-8.78,4.34-10.44,8.95l-73.74,205.72c-29.54,38.06-65.28,79.57-81.45,73.7-25.51-9.26-10.24-49.84-6.87-63.17,2.48-9.8,56.47-158.31,70.55-196.96,1.47-4.03-2.02-8.1-6.23-7.29l-66.38,12.86c-4.92.95-8.94,4.48-10.53,9.23-.88,2.64-1.98,5.9-3.24,9.67-1.74-1.2-3.54-2.3-5.43-3.28-49.75-25.9-132.13,33.89-184,133.53-51.86,99.64-53.58,201.41-3.82,227.31,36.1,18.79,89.36-7.53,135.69-61.44,7.01,20.79,18.72,36.55,37.82,37.64,23.05,1.31,50.51-15.43,74.74-34.69l-124.12,346.26c-1.42,3.96,2.01,7.96,6.14,7.16l63.72-12.34c6.71-1.3,12.24-6.04,14.55-12.48l145.93-407.1c3.39,30.08,15.08,52.93,35.18,63.39,49.75,25.9,132.13-33.89,184-133.53,51.86-99.64,53.58-201.41,3.82-227.31Zm-456.02,270.98c-27.27,52.4-63,87.78-79.79,79.04-16.8-8.74-8.3-58.31,18.97-110.7,27.27-52.4,63-87.78,79.79-79.04,16.8,8.74,8.3,58.31-18.97,110.7Zm389.66-73.6c-27.27,52.4-63,87.78-79.79,79.04-16.8-8.74-8.3-58.31,18.97-110.7,27.27-52.4,63-87.78,79.79-79.04,16.8,8.74,8.3,58.31-18.97,110.7Z"/><path class="cls-1" d="m486.09,740.49c.94-1.27,1.78-2.4,2.51-3.38,5.11-6.84,51.06-69.05,88.9-146.97,20.15-41.49,34.66-80.48,43.12-115.88,10.37-43.34,11.72-81.63,4.02-113.78-31.69-132.31-123.15-193.55-257.52-172.42-100.74,15.85-241.52,58.73-327.46,99.75-3.62,1.73-7.13,3.46-10.2,5.72-9.94,6.94-18.31,18.27-23.59,31.89-.37.97-.73,1.95-1.07,2.94-4.68,13.5-5.99,27.29-3.69,38.8,2.33,11.71,7.88,20.52,16.28,22.54,7.32,1.76,17.18-1.72,19.96-2.84,102.32-41.42,167.03-63.03,207.55-74.21l-120.24,334.84c-1.11,3.08,1.5,6.22,4.73,5.69l69.16-11.35c4.22-.72,7.73-3.66,9.18-7.69l121.02-337.62c3.54-.64,7.13-1.3,10.77-1.97,36.21-6.66,77.25-14.21,113.44-7,41.27,8.22,70.54,34.49,89.49,80.33,11.74,28.4,12.68,63.12,2.82,103.2-8.05,32.72-23.3,69.09-45.31,108.11-37.74,66.9-85.07,122.72-95.67,134.01-27.61,29.38-56.78,57.06-84.36,80.03-52.26,43.53-95.68,67.88-129.04,72.37-36.9,4.97-65.49-1.25-84.98-18.49-16.13-14.27-25.18-35.66-26.38-62.18-.18-3.97,2.58-7.47,6.48-8.22,42.5-8.23,249.54-48.61,287.13-55.9,2.76-.54,5.26-1.95,7.14-4.05,1.38-1.53,2.9-3.41,4.19-4.75,18.28-18.85,60.64-77.49,75.42-100.91,2.19-3.46-.52-7.85-4.54-7.08L20.76,688.48c-7.69,1.49-13.6,7.66-14.75,15.41-2.16,14.53-5.11,39.76-4.83,67.95.73,73.82,22.08,113.65,39.86,134.06,23.05,26.47,55.83,39.84,97.57,39.84,4.41,0,8.93-.15,13.54-.45,81.11-5.26,157.98-36.6,228.46-93.13,56.09-44.99,91.96-93.43,105.47-111.66ZM55.19,346.89c-3.04,8.8-7.84,16.38-13.49,21.36-5.5,4.84-11.14,6.6-15.87,4.97-9.97-3.45-13.02-20.88-6.8-38.84,3.04-8.8,7.84-16.38,13.5-21.36,5.51-4.84,11.14-6.6,15.87-4.97,9.97,3.45,13.01,20.88,6.79,38.84Z"/><path class="cls-1" d="m643.92,773.58c70.27,17.1,146.64-101.23,166.47-135.07,1.87-3.19-.18-7.25-3.86-7.62-16.59-1.66-42.78-9.78-55.38-14.29-3.53-1.26-7.45.09-9.44,3.27-11.79,18.79-49.53,73.72-71.41,64.16-24.41-10.66,6.54-83.97,18.97-110.7,2.4-5.16,5.85-11.51,10.04-18.35,8.14,16.63,21.85,34.32,44.92,45.88,54.97,27.53,107.01,19.34,155.25,15.56.73-.06,1.58-.14,2.52-.25l-67.69,188.84c-1.24,3.45,1.75,6.94,5.35,6.24l70.39-13.64c3.32-.64,6.06-2.99,7.2-6.17l67.94-189.53c30.38-5.68,65.78-12.5,101.69-19.52l-67.05,187.04c-1.24,3.45,1.75,6.94,5.35,6.24l70.39-13.64c3.32-.64,6.06-2.99,7.2-6.17l68.12-190.05c59.43-11.82,109.34-21.91,125.23-25.13,3.29-.67,5.98-3,7.11-6.16l31.01-86.52c1.82-5.08-2.64-10.18-7.92-9.06-20.31,4.34-64.46,13.77-119.07,25.43l130.41-363.81c2.38-6.65,8.78-27.94,20.96-27.07,8.61.62,8.77,5.99,11,13.92.86,3.06,3.94,4.94,7.06,4.34l41.49-8.04c3.97-.77,6.63-4.57,5.95-8.56C1410.88-2.7,1352.46.49,1345.22.03c-7.46-.47-51.02,4.06-66.34,46.81l-156.14,435.59c-33.7,7.19-68.61,14.65-102.54,21.89l131.97-368.17c2.38-6.65,8.23-27.72,20.96-27.07,8.43.43,8.99,5.53,11,13.92.74,3.09,3.94,4.94,7.06,4.34l41.49-8.04c3.97-.77,6.63-4.57,5.95-8.56-13.26-77.86-71.68-74.67-78.93-75.13-7.46-.47-51.02,4.06-66.34,46.81l-157.7,439.94c-34.2,7.29-64.78,13.81-88.69,18.9,10.36-60,3.76-126.11-39.64-137.36-56.51-14.64-121.84,47.01-169.72,127.69-47.89,80.68-71.01,223.17,6.33,241.98Zm125.15-279.3c15.25,3.63,10.09,32.51,2.82,56.73-24.03-4.39-34.36-21.25-39.14-39.13,12.52-12.19,25.53-20.17,36.31-17.6Z"/><path class="cls-1" d="m1053.31,895.23l449.24-87.54,2.45-.48c6.86-1.34,13.12-4.36,18.09-8.75,8.68-7.65,15.98-19.15,20.55-32.36,9.72-28.08,4.16-55.6-12.41-61.35h0c-1.95-.69-5.58-.69-7.17-.56-1.16.1-5.01.58-7.4.93l-1112.98,216.77c-9.27,1.81-16.38,9.27-17.72,18.62-2.07,14.43-4.59,37.44-4.38,63.16.32,39.95,7.33,95.39,38.93,132.62,23.77,28.02,58.15,42.18,102.3,42.18,3.04,0,6.14-.07,9.28-.2,81.12-3.49,159.35-37.57,232.52-101.28,46.86-40.8,91.23-99.97,106.6-121.26,2.09-2.89-.44-6.84-3.94-6.18l-95.04,18.12c-4.06.77-7.8,2.73-10.75,5.63-22.23,21.82-122.7,117.14-190.56,126.27-37.04,4.99-65.77-1.27-85.38-18.61-16.36-14.47-25.47-36.19-26.57-63.12-.16-3.88,2.54-7.3,6.35-8.04l504.06-98.22-234.01,652.82c-1.33,3.7,1.88,7.43,5.73,6.68l67.21-13.02c4.93-.96,8.99-4.44,10.69-9.17l234-652.8c.09-.25.2-.54.31-.87Zm439.66-146.2c3.11-8.97,8-16.71,13.78-21.79,4.3-3.78,8.7-5.75,12.73-5.75,1.31,0,2.59.21,3.81.63,4.96,1.71,8.45,6.77,9.83,14.24,1.4,7.57.46,16.68-2.64,25.65-6.38,18.41-19.98,30.49-30.32,26.91-4.96-1.72-8.45-6.78-9.83-14.25-1.4-7.57-.46-16.68,2.65-25.64Z"/></g></g></svg>