<?xml version="1.0" encoding="UTF-8" standalone="no"?>
<!-- Created with Inkscape (http://www.inkscape.org/) -->

<svg
   version="1.1"
   id="svg2"
   width="4000"
   height="4000"
   viewBox="0 0 4000 4000"
   sodipodi:docname="Doff Tap Logo v1.ai"
   xmlns:inkscape="http://www.inkscape.org/namespaces/inkscape"
   xmlns:sodipodi="http://sodipodi.sourceforge.net/DTD/sodipodi-0.dtd"
   xmlns="http://www.w3.org/2000/svg"
   xmlns:svg="http://www.w3.org/2000/svg">
  <defs
     id="defs6">
    <clipPath
       clipPathUnits="userSpaceOnUse"
       id="clipPath16">
      <path
         d="M 0,3000 H 3000 V 0 H 0 Z"
         id="path14" />
    </clipPath>
  </defs>
  <sodipodi:namedview
     id="namedview4"
     pagecolor="#ffffff"
     bordercolor="#000000"
     borderopacity="0.25"
     inkscape:showpageshadow="2"
     inkscape:pageopacity="0.0"
     inkscape:pagecheckerboard="0"
     inkscape:deskcolor="#d1d1d1" />
  <g
     id="g8"
     inkscape:groupmode="layer"
     inkscape:label="Doff Tap Logo v1"
     transform="matrix(1.3333333,0,0,-1.3333333,0,4000)">
    <g
       id="g10">
      <g
         id="g12"
         clip-path="url(#clipPath16)">
        <g
           id="g18"
           transform="translate(2532.2859,1517.9121)">
          <path
             d="m 0,0 c -5.212,-265.699 -91.941,-500.199 -270.013,-698.798 -139.319,-155.38 -310.304,-260.604 -512.081,-314.944 -56.618,-15.248 -114.405,-23.987 -173.069,-26.276 -24.483,-0.956 -48.996,-2.637 -73.464,-2.207 -254.216,4.466 -479.893,85.408 -672.097,253.635 -186.232,163.001 -300.467,367.48 -346.628,610.121 -11.404,59.943 -17.615,120.589 -16.716,181.847 1.241,153.201 32.559,299.518 102.03,436.72 41.735,82.424 94.626,157.292 157.226,225.327 147.048,159.813 326.688,263.927 537.557,314.677 92.963,22.374 187.504,30.908 282.776,26.476 224.592,-10.448 427.551,-82.609 605.319,-220.815 116.343,-90.45 208.681,-201.952 274.878,-333.972 C -56.84,357.177 -26.764,256.8 -10.991,152.161 -3.389,101.732 1.003,51.08 0,0 M 72.433,36.7 C 68.819,81.106 67.496,125.845 61.128,169.854 27.501,402.284 -73.69,601.708 -237.524,769.28 c -77.544,79.313 -166.638,143.59 -264.735,195.585 -178.027,94.362 -367.139,138.867 -568.82,129.215 -81.367,-3.895 -161.218,-16.685 -240.113,-36.424 -185.84,-46.498 -349.644,-133.918 -488.949,-265.571 -107.002,-101.124 -189.436,-219.897 -248.523,-354.869 -52.785,-120.574 -82.481,-246.705 -89.447,-377.88 -2.327,-43.815 -0.937,-88.076 2.3,-131.87 3.422,-46.292 7.698,-92.997 17.428,-138.27 59.787,-278.187 196.825,-509.752 421.904,-686.465 195.886,-153.793 419.123,-230.596 687.863,-233.928 27.958,2.268 75.796,4.209 123.087,10.354 130.449,16.951 253.796,56.739 369.897,118.976 116.137,62.257 217.397,143.09 304.372,241.849 65.697,74.598 119.401,157.174 163.178,246.399 80.249,163.56 122.86,335.932 122.779,518.431 -0.004,10.63 -1.4,21.265 -2.264,31.888"
             style="fill:#000000;fill-opacity:1;fill-rule:nonzero;stroke:none"
             id="path20" />
        </g>
        <g
           id="g22"
           transform="translate(2196.9268,1624.5698)">
          <path
             d="m 0,0 c 5.617,2.79 14.922,4.386 19.431,1.561 1.861,-1.167 3.31,-2.993 4.505,-5.059 3.675,-6.353 4.677,-13.915 3.163,-21.096 -3.142,-14.9 -7.414,-27.683 -17.224,-37.605 -4.75,-4.804 -12.92,-8.78 -19.437,-8.642 -8.196,0.173 -11.377,8.953 -13.339,16.422 C -27.221,-37.986 -15.03,-7.464 0,0 m -441.138,-181.758 c 3.318,9.425 7.569,14.608 18.152,15.471 10.559,0.861 20.917,4.115 31.38,6.229 125.004,25.254 249.937,50.863 375.07,75.457 29.52,5.802 52.611,34.93 53.63,64.638 C 38.016,6.916 21.351,20.838 -4.971,15.64 -25.925,11.502 -46.845,7.192 -67.797,3.039 c -155.879,-30.895 -311.711,-62.03 -467.662,-92.559 -103.548,-20.27 -207.268,-39.667 -310.911,-59.45 -84.51,-16.131 -168.871,-33.115 -253.638,-47.758 -20.462,-3.535 -27.647,-13.802 -30.409,-31.4 -0.39,-2.486 -1.025,-4.978 -1.039,-7.471 -0.135,-22.483 -0.573,-44.975 -0.121,-67.448 0.821,-40.908 14.107,-78.038 38.415,-110.485 28.159,-37.588 64.816,-55.753 113.391,-46.256 47.313,9.25 89.064,30.331 129.013,55.879 73.916,47.272 134.833,108.971 192.357,174.354 1.391,1.581 1.686,4.126 3.122,7.862 -4.15,-0.626 -6.513,-0.835 -8.809,-1.35 -34.311,-7.69 -68.71,-15.031 -102.845,-23.442 -7.564,-1.863 -14.476,-7.1 -21.199,-11.527 -37.816,-24.901 -74.878,-51.008 -113.408,-74.74 -26.188,-16.13 -54.24,-29.357 -84.603,-36.428 -16.315,-3.799 -32.159,-1.647 -43.7,10.749 -19.298,20.73 -22.542,46.116 -18.454,73.783 9.466,1.362 17.46,2.537 25.462,3.658 21.771,3.048 43.74,5.073 65.285,9.271 136.224,26.543 272.351,53.582 408.526,80.375 3.623,0.712 8.051,1.468 12.418,2.119 3.434,0.511 6.18,-2.815 5.027,-6.09 -77.587,-211.25 -155.232,-422.477 -232.747,-633.753 -1.317,-3.589 -2.155,-7.353 -3.083,-11.771 -1.018,-4.851 3.148,-9.221 8.042,-8.439 23.805,3.808 44.398,7.298 65.09,10.053 15.332,2.041 25.284,8.926 29.877,24.274 5.219,17.44 11.666,34.517 17.706,51.707 43.974,125.145 87.844,250.326 132.027,375.397 24.295,68.773 49.304,137.292 73.529,206.089"
             style="fill:#000000;fill-opacity:1;fill-rule:nonzero;stroke:none"
             id="path24" />
        </g>
        <g
           id="g26"
           transform="translate(743.5894,1971.7467)">
          <path
             d="m 0,0 c -6.966,-10.243 -16.216,-10.327 -22.508,0.178 -2.177,3.635 -3.694,7.665 -5.026,11.898 -2.978,9.458 -3.112,19.573 -0.484,29.134 1.706,6.205 3.574,12.215 6.411,17.726 2.602,5.054 10.502,10.039 16.04,10.074 C -1.216,69.037 5.334,62.196 7.181,57.065 14.34,37.177 11.95,17.572 0,0 m 432.416,-381.295 c 41.09,46.691 73.576,99.049 101.206,154.225 36.994,73.875 60.989,151.264 53.991,235.613 -2.649,31.938 -11.193,61.588 -28.052,88.961 -21.439,34.809 -54.045,55.229 -89.924,72.037 -48.731,22.829 -100.595,24.36 -151.751,17.171 C 265.832,179.397 214.045,167.604 163.448,153.188 104.803,136.48 47.827,114.142 -5.207,83.215 -33.465,66.736 -44.386,38.088 -34.752,7.563 c 6.898,-21.855 19.172,-26.531 40.192,-18.064 55.358,22.3 111.027,43.838 166.732,65.266 9.427,3.626 19.646,5.195 32.332,8.439 -14.498,-34.699 -27.607,-65.954 -40.618,-97.249 -13.036,-31.352 -25.964,-62.75 -38.96,-94.119 -12.996,-31.369 -26.382,-62.581 -38.923,-94.13 -12.379,-31.139 -27.793,-61.196 -37.447,-96.111 8.343,0.43 13.892,0.2 19.254,1.092 14.248,2.37 28.345,5.715 42.634,7.738 13.004,1.84 21.898,8.268 27.663,19.885 16.766,33.786 34.844,66.973 50.348,101.324 40.867,90.543 80.645,181.578 121.278,273.368 39.815,3.918 80.092,4.215 118.963,-8.182 17.644,-5.627 34.648,-14.935 50.111,-25.302 18.654,-12.508 28.62,-31.721 29.009,-54.554 0.299,-17.581 0.623,-35.392 -1.713,-52.745 -7.14,-53.026 -27.384,-101.758 -52.425,-148.539 -34.854,-65.114 -83.49,-119.439 -137.774,-168.46 -35.406,-31.972 -73.84,-60.609 -111.133,-90.469 -26.334,-21.085 -56.754,-31.749 -90.28,-34.351 -48.802,-3.787 -84.643,40.692 -69.47,80.342 79.381,15.249 158.887,30.727 238.512,45.567 10.363,1.932 19.519,5.174 26.954,12.207 21.456,20.295 42.881,40.641 63.698,61.583 9.12,9.175 16.732,19.847 25.029,29.84 -0.936,1.126 -1.871,2.253 -2.807,3.379 -5.513,-0.758 -11.075,-1.264 -16.533,-2.314 -49.343,-9.491 -98.662,-19.111 -148,-28.627 -83.237,-16.053 -166.428,-32.356 -249.785,-47.76 -12.557,-2.321 -18.776,-7.584 -21.084,-19.735 -12.891,-67.901 -2.459,-130.428 44.216,-183.564 22.87,-26.034 51.861,-40.797 87.932,-40.405 26.888,0.292 53.088,4.051 76.961,15.792 33.794,16.621 66.854,34.863 99.465,53.731 62.109,35.936 115.474,82.449 162.837,136.269"
             style="fill:#000000;fill-opacity:1;fill-rule:nonzero;stroke:none"
             id="path28" />
        </g>
        <g
           id="g30"
           transform="translate(1445.6736,1807.4667)">
          <path
             d="m 0,0 c 4.565,3.87 9.533,7.265 15.023,10.998 4.096,2.784 9.619,-0.236 9.502,-5.188 -0.303,-12.879 -3.691,-24.505 -7.508,-37.446 -1.137,-3.858 -5.644,-5.571 -9.053,-3.438 -3.448,2.157 -6.283,3.964 -8.693,6.223 C -12.873,-17.469 -12.789,-10.84 0,0 m -148.995,-194.71 c 3.106,-18.304 8.372,-35.495 20.424,-49.962 8.272,-9.93 18.275,-17.359 31.556,-18.995 21.82,-2.687 41.58,3.55 58.295,16.944 36.988,29.64 64.482,66.805 83.219,110.352 1.54,3.578 2.717,7.313 3.832,10.935 0.999,3.245 -0.857,6.678 -4.119,7.623 -18.78,5.444 -36.653,10.624 -54.91,15.916 -2.351,0.681 -4.899,-0.1 -6.431,-2.009 -17.153,-21.389 -32.174,-45.114 -54.671,-62.105 -3.633,-2.744 -8.897,-0.74 -9.688,3.744 -4.611,26.138 11.152,73.325 34.442,102.025 2.615,3.222 7.619,2.903 9.846,-0.599 0.891,-1.401 1.798,-2.78 2.753,-4.124 13.475,-18.974 29.868,-32.508 53.877,-37.951 37.673,-8.54 74.746,-4.027 112.092,0.035 3.286,0.357 6.572,0.715 10.342,1.127 4.484,0.489 7.918,-3.912 6.359,-8.146 -19.641,-53.321 -38.415,-104.287 -57.558,-156.256 -1.435,-3.895 1.368,-8.045 5.517,-8.186 3.238,-0.109 6.011,-0.13 8.692,0.356 14.829,2.69 29.464,6.525 44.34,8.863 11.978,1.882 18.277,8.132 22.569,19.373 18.615,48.764 38.254,97.136 56.95,145.87 4.009,10.449 9.384,16.637 21.122,17.877 11.815,1.249 23.402,4.564 35.132,6.738 12.838,2.379 25.704,4.611 39.796,7.084 4.571,0.802 8.323,-3.608 6.794,-7.989 -18.117,-51.908 -35.585,-101.958 -53.38,-152.944 -1.316,-3.769 1.298,-7.779 5.28,-8.075 0.849,-0.063 1.595,-0.051 2.317,0.085 22.222,4.188 44.42,8.512 66.593,12.958 7.51,1.505 11.47,6.537 13.901,13.749 5.42,16.082 11.479,31.949 17.252,47.912 13.297,36.773 26.58,73.551 39.994,110.673 0.7,1.937 2.336,3.394 4.342,3.861 6.024,1.403 11.695,2.789 17.416,3.922 26.492,5.248 52.975,10.556 79.528,15.488 11.461,2.129 19.143,6.968 22.649,19.234 6.387,22.337 14.381,44.212 21.49,66.349 0.607,1.892 0.957,3.866 1.29,6.195 0.596,4.18 -3.112,7.696 -7.246,6.839 -31.654,-6.563 -61.951,-12.844 -93.351,-19.354 -4.47,-0.927 -8.335,3.222 -7.085,7.612 0.798,2.803 1.512,5.203 2.344,7.561 16.936,48.022 34.173,95.939 50.869,144.044 15.249,43.935 29.6,88.183 45.102,132.027 3.898,11.027 9.336,22.092 16.513,31.217 7.532,9.579 17.647,8.369 22.986,-2.008 4.504,-8.752 7.595,-18.67 9.15,-28.417 4.358,-27.321 3.917,-27.388 31.472,-21.334 1.227,0.27 2.51,0.293 3.73,0.584 11.528,2.745 14.811,6.602 13.975,18.182 -0.631,8.741 -1.889,17.475 -3.473,26.101 -4.872,26.531 -14.824,50.627 -34.731,69.704 -22.848,21.896 -58.603,21.491 -81.389,-0.66 -16.702,-16.238 -26.03,-36.806 -34.75,-57.784 -11.254,-27.072 -22.483,-54.154 -33.723,-81.232 -0.06,-0.145 -0.115,-0.292 -0.165,-0.441 -3.498,-10.58 -6.578,-21.321 -10.584,-31.705 C 431.632,190.92 402.761,117.897 375.188,44.388 369.663,29.66 361.329,24.857 344.361,23.366 326.195,21.77 308.386,17.676 291.126,11.791 c -3.033,-1.035 -5.928,-1.515 -9.161,-1.888 -4.266,-0.493 -7.694,3.494 -6.556,7.636 0.326,1.187 0.663,2.311 1.049,3.418 35.529,102.025 71.103,204.035 106.675,306.046 1.445,4.145 2.251,7.775 4.654,12.198 4.571,6.569 9.888,10.972 15.582,11.758 7.912,1.093 13.159,-6.17 16.221,-13.488 1.191,-2.847 1.816,-6.01 2.223,-9.092 1.065,-8.059 1.823,-16.158 2.785,-24.232 1.7,-14.268 3.641,-16.472 17.318,-14.869 8.284,0.971 16.411,3.281 24.575,5.295 2.676,0.66 4.566,3.045 4.607,5.801 0.126,8.489 0.386,16.987 0.037,25.459 -0.832,20.177 -3.146,40.125 -12.956,58.328 -27.089,50.265 -92.647,53.733 -123.401,5.546 -10.32,-16.17 -17.045,-34.891 -23.765,-53.056 C 269.362,224.057 228.135,111.306 186.942,-1.457 184.096,-9.248 180.007,-13.56 171.375,-15.432 146.825,-20.755 122.54,-27.294 98.119,-33.227 l -0.079,-0.019 c -4.244,-1.018 -8.112,2.723 -7.229,6.997 2.368,11.452 4.755,21.984 6.072,32.648 1.684,13.653 2.876,27.526 2.468,41.249 -1.114,37.528 -22.189,57.754 -59.278,58.81 -37.02,1.053 -66.956,-15.234 -93.357,-38.783 -34.943,-31.168 -58.372,-70.502 -76.707,-113.136 -20.622,-47.95 -27.784,-97.509 -19.004,-149.249"
             style="fill:#000000;fill-opacity:1;fill-rule:nonzero;stroke:none"
             id="path32" />
        </g>
        <g
           id="g34"
           transform="translate(2240.6807,1238.9731)">
          <path
             d="m 0,0 c -1.792,-24.28 -10.577,-49.159 -22.725,-72.663 -17.658,-34.166 -38.314,-66.518 -65.521,-94.07 -7.439,-7.533 -15.86,-14.374 -24.741,-20.129 -9.404,-6.095 -15.302,-3.395 -17.32,7.878 -1.287,7.19 -0.635,14.979 0.47,22.301 4.853,32.15 17.887,61.357 33.445,89.55 17.06,30.917 36.115,60.464 60.947,85.857 6.944,7.1 14.395,16.887 25.302,12.219 C 0.317,26.468 -1.008,14.266 -0.007,4.414 0.056,3.791 0,3.156 0,0 m -392.913,-58.713 c -11.484,-69.284 -44.1,-127.643 -92.627,-177.681 -2.075,-2.14 -4.373,-4.05 -6.825,-5.744 -7.34,-5.073 -15.206,-10.368 -24.319,-5.825 -5.652,2.818 -7.655,7.408 -8.633,12.616 -1.191,6.343 -0.816,12.878 0.76,19.137 2.204,8.752 4.325,17.53 7.186,26.061 19.132,57.034 50.868,106.058 94.999,146.946 6.738,6.243 14.506,15.603 24.153,10.355 9.318,-5.068 6.838,-16.62 5.306,-25.865 M -38.744,91.678 C -47.318,86.52 -55.727,80.734 -63.1,74.017 -75.704,62.534 -87.099,49.725 -99.211,37.704 c 4.65,14.61 9.113,28.629 14.932,46.91 1.132,3.555 -1.835,7.079 -5.532,6.573 -18.089,-2.472 -33.148,-4.743 -48.285,-6.224 -12.765,-1.25 -19.356,-7.374 -24.022,-19.524 -19.6,-51.04 -40.176,-101.708 -60.71,-152.385 -11.846,-29.239 -25.712,-57.551 -45.92,-82.025 -9.14,-11.072 -19.249,-21.856 -30.69,-30.399 -17.374,-12.972 -34.042,-5.282 -36.188,16.402 -1.158,11.698 -0.789,24.215 2.162,35.508 5.857,22.414 12.662,44.777 21.447,66.188 16.703,40.711 35.164,80.699 52.665,121.088 2.381,5.495 4.076,11.287 6.501,18.936 1.018,3.213 -1.718,6.366 -5.042,5.809 -17.957,-3.01 -33.064,-5.794 -48.286,-7.618 -7.974,-0.956 -12.334,-4.39 -15.493,-11.412 -4.447,-9.887 -9.727,-19.401 -13.203,-26.231 -7.213,5.628 -13.471,10.911 -20.13,15.628 -14.227,10.389 -39.383,12.119 -60.859,2.913 -29.854,-14.341 -55.512,-34.557 -77.089,-59.618 -37.2,-43.208 -61.323,-93.43 -76.743,-147.901 -10.268,-36.274 -12.052,-72.741 -1.255,-109.669 10.003,-34.213 41.935,-59.015 83.932,-36.551 24.108,12.896 45.552,29.05 63.503,49.739 5.953,6.86 11.973,13.662 18.862,21.517 12.618,-18.367 26.292,-32.03 45.773,-38.083 19.111,-5.938 37.816,0.366 58.018,4.478 -1.647,-5.085 -2.456,-8.063 -3.562,-10.926 -15.861,-41.056 -31.484,-82.208 -47.72,-123.116 -25.507,-64.268 -51.511,-128.339 -77.027,-192.604 -1.41,-3.552 -3.274,-8.524 -3.096,-12.069 0.09,-1.786 1.153,-3.342 2.74,-4.166 4.309,-2.236 10.466,-2.719 15.426,-2.015 18.624,2.646 37.013,6.982 55.651,9.49 11.441,1.539 18.261,7.46 22.601,17.349 2.022,4.606 3.895,9.28 5.695,13.978 43.629,113.912 87.231,227.836 130.882,341.74 2.334,6.092 5.06,12.034 8.065,19.135 24.454,-37.608 54.451,-47.542 93.481,-29.668 16.881,7.731 33.68,17.956 47.018,30.706 57.989,55.431 89.951,124.915 103.357,203.153 4.498,26.252 2.087,52.718 -6.931,78.129 -13.64,38.436 -53.722,49.3 -84.461,30.809"
             style="fill:#000000;fill-opacity:1;fill-rule:nonzero;stroke:none"
             id="path36" />
        </g>
      </g>
    </g>
  </g>
</svg>
